<svg width="228" height="228" viewBox="0 0 228 228" fill="none" xmlns="http://www.w3.org/2000/svg">
<path fill-rule="evenodd" clip-rule="evenodd" d="M114 208C165.915 208 208 165.915 208 114C208 62.0852 165.915 20 114 20C62.0852 20 20 62.0852 20 114C20 165.915 62.0852 208 114 208ZM113.838 205.083C164.231 205.083 205.083 164.231 205.083 113.838C205.083 63.4448 164.231 22.5931 113.838 22.5931C63.4448 22.5931 22.5931 63.4448 22.5931 113.838C22.5931 164.231 63.4448 205.083 113.838 205.083Z" fill="#99ACFF"/>
<path d="M113.749 115.016L87.1259 74.7793H73.1582V153.437H92.7011L92.7875 133.902L92.917 114.367L99.9616 125.042L107.05 135.717H120.361L134.839 113.978L134.969 133.729L135.055 153.437H154.936V74.7793H140.328L113.749 115.016Z" fill="white"/>
</svg>
